<svg width="64" height="64" viewBox="0 0 64 64" fill="none" xmlns="http://www.w3.org/2000/svg">
<circle cx="32" cy="32" r="32" fill="#D9D9D9"/>
<circle cx="32" cy="32" r="32" fill="url(#paint0_linear_255_1153)"/>
<path d="M39.6074 12.3508H23.2697C16.6299 12.3508 11.228 17.7527 11.228 24.3925V40.7302C11.228 47.37 16.6299 52.7719 23.2697 52.7719H39.6074C46.2472 52.7719 51.6491 47.37 51.6491 40.7302V24.3925C51.649 17.7527 46.2472 12.3508 39.6074 12.3508ZM47.5827 40.7302C47.5827 45.1348 44.012 48.7055 39.6074 48.7055H23.2697C18.8651 48.7055 15.2944 45.1348 15.2944 40.7302V24.3925C15.2944 19.9878 18.8651 16.4172 23.2697 16.4172H39.6074C44.012 16.4172 47.5827 19.9878 47.5827 24.3925V40.7302Z" fill="#FEFEFE"/>
<path d="M31.4382 22.1069C25.6737 22.1069 20.9839 26.7967 20.9839 32.5612C20.9839 38.3256 25.6737 43.0155 31.4382 43.0155C37.2027 43.0155 41.8925 38.3257 41.8925 32.5612C41.8925 26.7967 37.2027 22.1069 31.4382 22.1069ZM31.4382 38.9492C27.9102 38.9492 25.0502 36.0893 25.0502 32.5613C25.0502 29.0333 27.9103 26.1733 31.4382 26.1733C34.9662 26.1733 37.8262 29.0333 37.8262 32.5613C37.8262 36.0892 34.9661 38.9492 31.4382 38.9492Z" fill="#FEFEFE"/>
<path d="M41.9128 24.6908C43.2963 24.6908 44.4179 23.5692 44.4179 22.1857C44.4179 20.8022 43.2963 19.6807 41.9128 19.6807C40.5293 19.6807 39.4077 20.8022 39.4077 22.1857C39.4077 23.5692 40.5293 24.6908 41.9128 24.6908Z" fill="#FEFEFE"/>
<defs>
<linearGradient id="paint0_linear_255_1153" x1="32" y1="63.8137" x2="32" y2="0.497099" gradientUnits="userSpaceOnUse">
<stop stop-color="#FDBF58"/>
<stop offset="0.3" stop-color="#F17835"/>
<stop offset="0.6" stop-color="#DA2E7D"/>
<stop offset="1" stop-color="#5061D1"/>
</linearGradient>
</defs>
</svg>
