<svg width="64" height="64" viewBox="0 0 64 64" fill="none" xmlns="http://www.w3.org/2000/svg">
<path d="M64 32C64 49.6731 49.6731 64 32 64C14.3269 64 0 49.6731 0 32C0 14.3269 14.3269 0 32 0C49.6731 0 64 14.3269 64 32Z" fill="black"/>
<path d="M48.0005 25.2169V31.1773C46.9591 31.0756 45.6059 30.8389 44.1091 30.2904C42.1545 29.5739 40.6997 28.5941 39.7467 27.8355V39.8824L39.7224 39.8448C39.7379 40.0837 39.7467 40.327 39.7467 40.5725C39.7467 46.555 34.8803 51.4251 28.8973 51.4251C22.9143 51.4251 18.0479 46.555 18.0479 40.5725C18.0479 34.5899 22.9143 29.7176 28.8973 29.7176C29.4832 29.7176 30.0581 29.7641 30.6197 29.8547V35.7289C30.0802 35.5365 29.5009 35.4326 28.8973 35.4326C26.065 35.4326 23.7589 37.7371 23.7589 40.5725C23.7589 43.4078 26.065 45.7124 28.8973 45.7124C31.7296 45.7124 34.0357 43.4056 34.0357 40.5725C34.0357 40.4663 34.0335 40.3601 34.0269 40.254V16.8435H39.9811C40.0032 17.3478 40.0231 17.8564 40.0452 18.3607C40.085 19.3537 40.4388 20.307 41.0557 21.0877C41.7787 22.0055 42.8466 23.0716 44.3457 23.923C45.7496 24.7192 47.0674 25.0598 48.0005 25.2213V25.2169Z" fill="#FF004F"/>
<path d="M45.9526 20.3778V26.3382C44.9112 26.2365 43.5581 25.9998 42.0612 25.4513C40.1067 24.7348 38.6518 23.755 37.6989 22.9964V35.0433L37.6746 35.0057C37.69 35.2446 37.6989 35.4879 37.6989 35.7334C37.6989 41.7159 32.8325 46.586 26.8494 46.586C20.8664 46.586 16 41.7159 16 35.7334C16 29.7508 20.8664 24.8785 26.8494 24.8785C27.4354 24.8785 28.0102 24.925 28.5718 25.0157V30.8898C28.0323 30.6974 27.4531 30.5935 26.8494 30.5935C24.0171 30.5935 21.711 32.898 21.711 35.7334C21.711 38.5687 24.0171 40.8733 26.8494 40.8733C29.6818 40.8733 31.9878 38.5665 31.9878 35.7334C31.9878 35.6272 31.9856 35.5211 31.979 35.4149V12H37.9332C37.9554 12.5043 37.9753 13.0129 37.9974 13.5172C38.0372 14.5102 38.3909 15.4635 39.0078 16.2442C39.7308 17.162 40.7987 18.2281 42.2978 19.0795C43.7018 19.8735 45.0196 20.2163 45.9526 20.3778Z" fill="#00F7EF"/>
<path d="M47.2553 22.9832V28.9437C46.214 28.8419 44.8608 28.6053 43.364 28.0568C41.4094 27.3402 39.9546 26.3604 39.0016 25.6018V37.6488L38.9773 37.6112C38.9928 37.85 39.0016 38.0933 39.0016 38.3388C39.0016 44.3214 34.1352 49.1915 28.1522 49.1915C22.1692 49.1915 17.3027 44.3214 17.3027 38.3388C17.3027 32.3563 22.1692 27.484 28.1522 27.484C28.7381 27.484 29.313 27.5304 29.8746 27.6211V33.4953C29.3351 33.3029 28.7558 33.1989 28.1522 33.1989C25.3199 33.1989 23.0138 35.5035 23.0138 38.3388C23.0138 41.1742 25.3199 43.4787 28.1522 43.4787C30.9845 43.4787 33.2906 41.172 33.2906 38.3388C33.2906 38.2327 33.2884 38.1265 33.2817 38.0203V14.6099H39.236C39.2581 15.1141 39.278 15.6228 39.3001 16.1271C39.3399 17.1201 39.6937 18.0733 40.3105 18.854C41.0335 19.7719 42.1015 20.8379 43.6005 21.6894C45.0045 22.4834 46.3223 22.8262 47.2553 22.9877V22.9832Z" fill="white"/>
</svg>
