<svg width="64" height="64" viewBox="0 0 64 64" fill="none" xmlns="http://www.w3.org/2000/svg">
<circle cx="32" cy="32" r="32" fill="#D9D9D9"/>
<circle cx="32" cy="32" r="32" fill="url(#paint0_linear_383_1404)"/>
<path d="M39.6075 12.3496H23.2697C16.6299 12.3496 11.2281 17.7515 11.2281 24.3913V40.729C11.2281 47.3688 16.6299 52.7707 23.2697 52.7707H39.6075C46.2473 52.7707 51.6491 47.3688 51.6491 40.729V24.3913C51.6491 17.7515 46.2472 12.3496 39.6075 12.3496ZM47.5828 40.729C47.5828 45.1336 44.0121 48.7043 39.6075 48.7043H23.2697C18.8651 48.7043 15.2944 45.1336 15.2944 40.729V24.3913C15.2944 19.9866 18.8651 16.416 23.2697 16.416H39.6075C44.0121 16.416 47.5828 19.9866 47.5828 24.3913V40.729Z" fill="#FEFEFE"/>
<path d="M31.4385 22.1064C25.6739 22.1064 20.9841 26.7962 20.9841 32.5607C20.9841 38.3251 25.6739 43.015 31.4385 43.015C37.203 43.015 41.8928 38.3252 41.8928 32.5607C41.8928 26.7962 37.203 22.1064 31.4385 22.1064ZM31.4385 38.9487C27.9104 38.9487 25.0505 36.0888 25.0505 32.5608C25.0505 29.0328 27.9105 26.1728 31.4385 26.1728C34.9665 26.1728 37.8264 29.0328 37.8264 32.5608C37.8264 36.0887 34.9664 38.9487 31.4385 38.9487Z" fill="#FEFEFE"/>
<path d="M41.913 24.6898C43.2965 24.6898 44.418 23.5683 44.418 22.1848C44.418 20.8012 43.2965 19.6797 41.913 19.6797C40.5295 19.6797 39.4079 20.8012 39.4079 22.1848C39.4079 23.5683 40.5295 24.6898 41.913 24.6898Z" fill="#FEFEFE"/>
<defs>
<linearGradient id="paint0_linear_383_1404" x1="32" y1="63.8137" x2="32" y2="0.497099" gradientUnits="userSpaceOnUse">
<stop stop-color="#FDBF58"/>
<stop offset="0.3" stop-color="#F17835"/>
<stop offset="0.6" stop-color="#DA2E7D"/>
<stop offset="1" stop-color="#5061D1"/>
</linearGradient>
</defs>
</svg>
