<svg width="64" height="64" viewBox="0 0 64 64" fill="none" xmlns="http://www.w3.org/2000/svg">
<rect width="64" height="64" fill="#FEFEFE"/>
<path d="M26.72 33.829C26.48 33.859 26.24 33.891 26 33.925M26.72 33.829C30.2263 33.3891 33.7737 33.3891 37.28 33.829M26.72 33.829L26.34 38M37.28 33.829C37.52 33.859 37.76 33.891 38 33.925M37.28 33.829L37.66 38L37.889 40.523C37.9032 40.6787 37.8848 40.8356 37.8349 40.9837C37.7851 41.1319 37.7049 41.268 37.5995 41.3834C37.4942 41.4989 37.3659 41.5911 37.2229 41.6542C37.0799 41.7173 36.9253 41.7499 36.769 41.75H27.231C26.569 41.75 26.051 41.182 26.111 40.523L26.34 38M26.34 38H25.25C24.6533 38 24.081 37.7629 23.659 37.341C23.2371 36.919 23 36.3467 23 35.75V29.456C23 28.375 23.768 27.441 24.837 27.281C25.4729 27.1859 26.1107 27.1035 26.75 27.034M37.658 38H38.749C39.0446 38.0001 39.3372 37.942 39.6103 37.829C39.8834 37.716 40.1316 37.5503 40.3406 37.3413C40.5497 37.1324 40.7155 36.8843 40.8286 36.6113C40.9418 36.3382 41 36.0456 41 35.75V29.456C41 28.375 40.232 27.441 39.163 27.281C38.5271 27.1859 37.8893 27.1035 37.25 27.034M37.25 27.034C33.7603 26.6543 30.2397 26.6543 26.75 27.034M37.25 27.034V23.375C37.25 22.754 36.746 22.25 36.125 22.25H27.875C27.254 22.25 26.75 22.754 26.75 23.375V27.034M38 30.5H38.008V30.508H38V30.5ZM35 30.5H35.008V30.508H35V30.5Z" stroke="#444444" stroke-width="1.5" stroke-linecap="round" stroke-linejoin="round"/>
</svg>
