<svg width="64" height="64" viewBox="0 0 64 64" fill="none" xmlns="http://www.w3.org/2000/svg">
<path d="M64 32C64 49.6731 49.6731 64 32 64C14.3269 64 0 49.6731 0 32C0 14.3269 14.3269 0 32 0C49.6731 0 64 14.3269 64 32Z" fill="#F5F5F5"/>
<path d="M24 32V40C24 40.5304 24.2107 41.0391 24.5858 41.4142C24.9609 41.7893 25.4696 42 26 42H38C38.5304 42 39.0391 41.7893 39.4142 41.4142C39.7893 41.0391 40 40.5304 40 40V32" stroke="#6E6E6E" stroke-width="2" stroke-linecap="round" stroke-linejoin="round"/>
<path d="M36 26L32 22L28 26" stroke="#6E6E6E" stroke-width="2" stroke-linecap="round" stroke-linejoin="round"/>
<path d="M32 22V35" stroke="#6E6E6E" stroke-width="2" stroke-linecap="round" stroke-linejoin="round"/>
</svg>
