<svg width="64" height="64" viewBox="0 0 64 64" fill="none" xmlns="http://www.w3.org/2000/svg">
<rect width="64" height="64" fill="#FEFEFE"/>
<path d="M27.2167 30.9068C26.9745 30.4711 26.5946 30.1282 26.1365 29.9318C25.6783 29.7354 25.1679 29.6967 24.6854 29.8218C24.2029 29.9468 23.7756 30.2286 23.4706 30.6228C23.1655 31.017 23 31.5013 23 31.9998C23 32.4982 23.1655 32.9826 23.4706 33.3768C23.7756 33.771 24.2029 34.0527 24.6854 34.1778C25.1679 34.3029 25.6783 34.2642 26.1365 34.0678C26.5946 33.8714 26.9745 33.5285 27.2167 33.0928M27.2167 30.9068C27.3967 31.2308 27.4997 31.6028 27.4997 31.9998C27.4997 32.3968 27.3967 32.7698 27.2167 33.0928M27.2167 30.9068L36.7827 25.5928M27.2167 33.0928L36.7827 38.4068M36.7827 25.5928C36.9229 25.8569 37.1144 26.0905 37.346 26.2797C37.5776 26.469 37.8445 26.6102 38.1313 26.6951C38.4181 26.78 38.7189 26.8068 39.0161 26.7741C39.3134 26.7414 39.6012 26.6497 39.8626 26.5045C40.124 26.3592 40.3539 26.1633 40.5387 25.9282C40.7236 25.6931 40.8597 25.4235 40.9391 25.1352C41.0185 24.8469 41.0397 24.5456 41.0013 24.249C40.963 23.9524 40.8659 23.6664 40.7157 23.4078C40.4198 22.8981 39.9357 22.5249 39.3675 22.3684C38.7993 22.2119 38.1924 22.2845 37.6772 22.5707C37.162 22.857 36.7797 23.3339 36.6124 23.899C36.4452 24.4641 36.5063 25.0723 36.7827 25.5928ZM36.7827 38.4068C36.6392 38.6652 36.5479 38.9493 36.5142 39.2429C36.4804 39.5366 36.5049 39.834 36.5861 40.1182C36.6673 40.4024 36.8037 40.6678 36.9875 40.8993C37.1712 41.1307 37.3988 41.3238 37.6572 41.4673C37.9156 41.6108 38.1997 41.7021 38.4933 41.7358C38.787 41.7695 39.0844 41.7451 39.3685 41.6639C39.6527 41.5827 39.9182 41.4463 40.1496 41.2625C40.3811 41.0787 40.5742 40.8512 40.7177 40.5928C41.0076 40.071 41.0783 39.4554 40.9143 38.8814C40.7503 38.3075 40.365 37.8222 39.8432 37.5323C39.3214 37.2424 38.7058 37.1717 38.1318 37.3357C37.5579 37.4997 37.0726 37.885 36.7827 38.4068Z" stroke="#444444" stroke-width="1.5" stroke-linecap="round" stroke-linejoin="round"/>
</svg>
