<svg width="64" height="64" viewBox="0 0 64 64" fill="none" xmlns="http://www.w3.org/2000/svg">
<path d="M64 32C64 49.6731 49.6731 64 32 64C14.3269 64 0 49.6731 0 32C0 14.3269 14.3269 0 32 0C49.6731 0 64 14.3269 64 32Z" fill="black"/>
<path d="M48.0001 25.2171V31.1776C46.9587 31.0758 45.6056 30.8392 44.1087 30.2907C42.1542 29.5741 40.6994 28.5943 39.7464 27.8357V39.8827L39.7221 39.8451C39.7376 40.0839 39.7464 40.3272 39.7464 40.5727C39.7464 46.5553 34.88 51.4253 28.897 51.4253C22.914 51.4253 18.0475 46.5553 18.0475 40.5727C18.0475 34.5902 22.914 29.7179 28.897 29.7179C29.4829 29.7179 30.0578 29.7643 30.6194 29.855V35.7292C30.0799 35.5367 29.5006 35.4328 28.897 35.4328C26.0647 35.4328 23.7586 37.7374 23.7586 40.5727C23.7586 43.4081 26.0647 45.7126 28.897 45.7126C31.7293 45.7126 34.0354 43.4058 34.0354 40.5727C34.0354 40.4665 34.0332 40.3604 34.0265 40.2542V16.8438H39.9808C40.0029 17.348 40.0228 17.8567 40.0449 18.361C40.0847 19.354 40.4385 20.3072 41.0553 21.0879C41.7783 22.0058 42.8462 23.0718 44.3453 23.9233C45.7493 24.7195 47.0671 25.0601 48.0001 25.2215V25.2171Z" fill="#FF004F"/>
<path d="M45.9527 20.3778V26.3382C44.9113 26.2365 43.5581 25.9998 42.0613 25.4513C40.1067 24.7348 38.6519 23.755 37.6989 22.9964V35.0433L37.6746 35.0057C37.6901 35.2446 37.6989 35.4879 37.6989 35.7334C37.6989 41.7159 32.8325 46.586 26.8495 46.586C20.8665 46.586 16.0001 41.7159 16.0001 35.7334C16.0001 29.7508 20.8665 24.8785 26.8495 24.8785C27.4354 24.8785 28.0103 24.925 28.5719 25.0157V30.8898C28.0324 30.6974 27.4531 30.5935 26.8495 30.5935C24.0172 30.5935 21.7111 32.898 21.7111 35.7334C21.7111 38.5687 24.0172 40.8733 26.8495 40.8733C29.6818 40.8733 31.9879 38.5665 31.9879 35.7334C31.9879 35.6272 31.9857 35.5211 31.979 35.4149V12H37.9333C37.9554 12.5043 37.9753 13.0129 37.9974 13.5172C38.0372 14.5102 38.391 15.4635 39.0079 16.2442C39.7309 17.162 40.7988 18.2281 42.2979 19.0795C43.7019 19.8735 45.0196 20.2163 45.9527 20.3778Z" fill="#00F7EF"/>
<path d="M47.255 22.9827V28.9432C46.2136 28.8414 44.8605 28.6048 43.3636 28.0563C41.4091 27.3397 39.9542 26.36 39.0013 25.6014V37.6483L38.977 37.6107C38.9925 37.8496 39.0013 38.0928 39.0013 38.3383C39.0013 44.3209 34.1348 49.191 28.1518 49.191C22.1688 49.191 17.3024 44.3209 17.3024 38.3383C17.3024 32.3558 22.1688 27.4835 28.1518 27.4835C28.7378 27.4835 29.3126 27.5299 29.8742 27.6206V33.4948C29.3347 33.3024 28.7555 33.1984 28.1518 33.1984C25.3195 33.1984 23.0135 35.503 23.0135 38.3383C23.0135 41.1737 25.3195 43.4782 28.1518 43.4782C30.9842 43.4782 33.2902 41.1715 33.2902 38.3383C33.2902 38.2322 33.288 38.126 33.2814 38.0199V14.6094H39.2357C39.2578 15.1136 39.2777 15.6223 39.2998 16.1266C39.3396 17.1196 39.6933 18.0728 40.3102 18.8536C41.0332 19.7714 42.1011 20.8374 43.6002 21.6889C45.0042 22.4829 46.322 22.8257 47.255 22.9872V22.9827Z" fill="white"/>
</svg>
