<svg width="113" height="79" viewBox="0 0 113 79" fill="none" xmlns="http://www.w3.org/2000/svg">
<g filter="url(#filter0_dd_1109_2210)">
<rect x="21.3984" y="7.71826" width="83" height="34" rx="2" transform="rotate(15.5 21.3984 7.71826)" fill="white" shape-rendering="crispEdges"/>
<path d="M32.6617 29.0021L36.9595 30.1939C37.1008 30.2331 37.1672 30.1685 37.1585 30.0001L36.5006 23.4666L32.561 28.7666C32.4868 28.8844 32.5204 28.9629 32.6617 29.0021ZM29.7523 32.533C29.7052 32.6029 29.6674 32.6893 29.6389 32.7921C29.614 32.882 29.6351 33.0055 29.7022 33.1625C29.773 33.3066 29.8965 33.4101 30.0728 33.4728L30.4861 33.6289C30.646 33.701 30.7064 33.8076 30.6672 33.949C30.6173 34.1288 30.496 34.1921 30.3033 34.1386L28.6479 33.5965L26.8727 33.1872C26.6928 33.1374 26.6261 33.0289 26.6724 32.8619C26.7223 32.682 26.8179 32.6116 26.9592 32.6508L27.3361 32.7138C27.9064 32.8028 28.352 32.6428 28.673 32.2337L37.0093 21.4077C37.1035 21.2678 37.2726 21.2317 37.5167 21.2994C37.7737 21.3706 37.9129 21.4923 37.9344 21.6643L39.485 35.2321C39.5202 35.7538 39.8133 36.1187 40.3644 36.3269L40.7584 36.4777C40.8098 36.4919 40.8476 36.5301 40.8719 36.5922C40.8962 36.6543 40.9013 36.711 40.887 36.7624C40.8336 36.9551 40.7169 37.0266 40.537 36.9767L38.342 36.2849L36.3356 35.8115C36.1557 35.7616 36.0871 35.6596 36.1299 35.5054C36.1798 35.3255 36.2836 35.2506 36.4413 35.2805L36.8953 35.3648C37.0659 35.3983 37.2186 35.3715 37.3535 35.2844C37.5012 35.2008 37.5893 35.1076 37.6178 35.0048C37.6463 34.902 37.652 34.8068 37.6348 34.719L37.3155 31.4549C37.3125 31.3158 37.2276 31.223 37.0605 31.1767L32.0689 29.7924C31.9148 29.7496 31.7942 29.7854 31.7071 29.8996L29.7523 32.533ZM49.7034 28.83C50.8983 29.1614 51.809 29.9189 52.4354 31.1027C53.0654 32.2737 53.1809 33.5787 52.7818 35.0177C52.3827 36.4567 51.5578 37.5355 50.3069 38.254C49.0725 38.9633 47.7807 39.1308 46.4316 38.7567C45.4423 38.4823 44.6378 38.0655 44.018 37.5062C43.8188 37.3264 43.6614 37.2205 43.5458 37.1884C43.3017 37.1207 43.0487 37.2097 42.7869 37.4553C42.6599 37.6138 42.5386 37.677 42.4229 37.645C42.1788 37.5773 42.1017 37.4313 42.1915 37.2072C42.409 36.6725 42.5462 36.3024 42.6032 36.0968L46.104 23.4733C46.1717 23.2292 46.162 23.0397 46.0749 22.9048C46.0006 22.7735 45.8478 22.6758 45.6166 22.6117L44.942 22.4246C44.775 22.3783 44.7146 22.2716 44.761 22.1046C44.8073 21.9375 44.9175 21.8643 45.0917 21.885L47.6634 22.2661C47.689 22.2732 47.7212 22.2821 47.7597 22.2928C47.991 22.3569 48.0656 22.5368 47.9837 22.8323L46.6495 27.1944L46.2753 28.5434C46.2433 28.6591 46.2476 28.7433 46.2883 28.7961C46.3325 28.836 46.3793 28.8421 46.4285 28.8142C47.4169 28.4934 48.5085 28.4986 49.7034 28.83ZM50.9041 35.2026C51.3245 33.6865 51.3468 32.4336 50.971 31.4438C50.608 30.4576 49.8998 29.8184 48.8462 29.5262C47.8055 29.2376 46.9205 29.3104 46.1913 29.7447C46.0271 29.8375 45.9273 29.9482 45.8916 30.0767L44.5127 35.049C44.3417 35.6657 44.4543 36.2574 44.8507 36.8239C45.247 37.3904 45.7792 37.7663 46.4474 37.9516C47.5009 38.2438 48.4305 38.1349 49.2361 37.625C50.0416 37.115 50.5977 36.3076 50.9041 35.2026ZM60.9847 31.9585C62.4622 32.3683 63.5096 33.1569 64.1267 34.3243C64.7567 35.4952 64.8615 36.8387 64.4411 38.3549C64.0242 39.8581 63.2506 40.9511 62.1204 41.6339C60.9937 42.3039 59.6787 42.4304 58.1754 42.0135C56.685 41.6002 55.6248 40.808 54.9948 39.6371C54.3777 38.4697 54.2758 37.1408 54.6891 35.6504C55.1024 34.16 55.8888 33.0705 57.0484 32.382C58.2079 31.6935 59.52 31.5523 60.9847 31.9585ZM62.8766 35.0153C62.7936 34.4665 62.5728 33.9902 62.2144 33.5864C61.8723 33.1733 61.393 32.8812 60.7762 32.7102C59.7098 32.4144 58.8152 32.5469 58.0925 33.1074C57.3697 33.668 56.8498 34.52 56.5326 35.6635C56.2048 36.8456 56.12 37.9498 56.2782 38.976C56.3648 39.512 56.5791 39.9865 56.9211 40.3996C57.2796 40.8034 57.7543 41.0873 58.3453 41.2512C59.4375 41.5541 60.3385 41.4234 61.0484 40.8593C61.7711 40.2987 62.2946 39.4338 62.6189 38.2646C62.9431 37.0954 63.029 36.0123 62.8766 35.0153ZM76.8412 37.4559L74.8796 44.529C74.7656 44.9401 74.8015 45.3098 74.9872 45.6381C75.1764 45.9534 75.4509 46.161 75.8107 46.2608C76.0034 46.3142 76.0784 46.418 76.0357 46.5722C75.968 46.8163 75.6836 46.8689 75.1825 46.73C74.4244 46.5197 73.85 46.0214 73.4593 45.2351C73.4314 45.1859 73.4054 45.1302 73.3811 45.0681C73.3568 45.006 73.3371 44.9522 73.3221 44.9065C73.2885 44.828 73.2396 44.7798 73.1754 44.762C73.124 44.7478 73.0262 44.776 72.8821 44.8467C71.7946 45.3753 70.692 45.4846 69.5741 45.1746C68.4692 44.8682 67.6717 44.3011 67.1818 43.4734C66.6918 42.6457 66.6107 41.6408 66.9385 40.4588L68.2908 35.5828C68.362 35.3259 68.3541 35.1299 68.267 34.9951C68.1927 34.8638 68.0399 34.7661 67.8086 34.7019L67.1534 34.5202C67.0891 34.5024 67.032 34.4589 66.982 34.3897C66.9449 34.324 66.937 34.2527 66.9584 34.1756C67.0011 34.0214 67.116 33.9564 67.303 33.9806L69.9165 34.4355C69.955 34.4462 69.9871 34.4551 70.0128 34.4623C70.2698 34.5335 70.3698 34.672 70.3128 34.8775C70.3057 34.9032 70.2522 34.9714 70.1523 35.0821C70.0524 35.1927 69.9757 35.3444 69.9223 35.5372L68.3563 41.184C68.1354 41.9806 68.2049 42.6779 68.5649 43.2759C68.9412 43.8645 69.5149 44.2657 70.2858 44.4795C71.0695 44.6969 71.805 44.5895 72.4921 44.1574C73.1921 43.7289 73.6436 43.1485 73.8467 42.4161L75.2096 37.5016C75.2809 37.2446 75.273 37.0487 75.1858 36.9139C75.1115 36.7826 74.9588 36.6848 74.7275 36.6207L73.8795 36.3855C73.8153 36.3677 73.7581 36.3242 73.7082 36.255C73.671 36.1894 73.6631 36.118 73.6845 36.0409C73.7273 35.8867 73.8422 35.8217 74.0292 35.8459L76.7968 36.3436C76.8225 36.3508 76.8546 36.3597 76.8932 36.3704C77.1501 36.4416 77.2501 36.58 77.1931 36.7856C77.186 36.8113 77.1389 36.8813 77.0519 36.9955C76.9649 37.1097 76.8946 37.2632 76.8412 37.4559ZM83.379 47.7785C83.3113 48.0226 82.9784 48.2001 82.3803 48.311C81.7951 48.4254 81.2391 48.4096 80.7124 48.2635C79.7744 48.0034 79.1605 47.5979 78.8705 47.0471C78.5969 46.4869 78.6044 45.6865 78.893 44.6458L80.4964 38.864C80.5356 38.7226 80.4717 38.6288 80.3047 38.5825L79.129 38.2565C79.0648 38.2386 79.0123 38.2033 78.9716 38.1505C78.9345 38.0849 78.9312 38.0217 78.9619 37.961L79.1587 37.476C79.2271 37.3289 79.3256 37.2732 79.4541 37.3089L80.6105 37.6295C80.7261 37.6616 80.8035 37.607 80.8427 37.4656L81.7591 34.8349C81.8396 34.5943 81.9955 34.5061 82.2268 34.5702C82.4067 34.6201 82.502 34.7503 82.5128 34.9609L82.3952 37.8547C82.3874 38.0324 82.4606 38.1426 82.6148 38.1854L85.4864 38.9818C85.6663 39.0317 85.7156 39.1283 85.6343 39.2718L85.4375 39.7569C85.369 39.9039 85.2706 39.9597 85.1421 39.924L82.2127 39.1116C82.1099 39.0831 82.0389 39.1395 81.9997 39.2809L80.3428 45.2554C80.0079 46.4631 80.3094 47.1971 81.2473 47.4572C81.6713 47.5747 82.1103 47.6135 82.5642 47.5733L83.245 47.5131C83.3735 47.5487 83.4182 47.6372 83.379 47.7785Z" fill="#2E2E2E"/>
<path d="M26.1062 35.652L82.4308 51.2722L82.3239 51.6576L25.9993 36.0375L26.1062 35.652Z" fill="#2E2E2E"/>
</g>
<defs>
<filter id="filter0_dd_1109_2210" x="0.3125" y="-0.281738" width="113.066" height="78.9443" filterUnits="userSpaceOnUse" color-interpolation-filters="sRGB">
<feFlood flood-opacity="0" result="BackgroundImageFix"/>
<feColorMatrix in="SourceAlpha" type="matrix" values="0 0 0 0 0 0 0 0 0 0 0 0 0 0 0 0 0 0 127 0" result="hardAlpha"/>
<feOffset dy="4"/>
<feGaussianBlur stdDeviation="6"/>
<feComposite in2="hardAlpha" operator="out"/>
<feColorMatrix type="matrix" values="0 0 0 0 0 0 0 0 0 0 0 0 0 0 0 0 0 0 0.12 0"/>
<feBlend mode="normal" in2="BackgroundImageFix" result="effect1_dropShadow_1109_2210"/>
<feColorMatrix in="SourceAlpha" type="matrix" values="0 0 0 0 0 0 0 0 0 0 0 0 0 0 0 0 0 0 127 0" result="hardAlpha"/>
<feOffset dy="4"/>
<feGaussianBlur stdDeviation="2"/>
<feComposite in2="hardAlpha" operator="out"/>
<feColorMatrix type="matrix" values="0 0 0 0 0 0 0 0 0 0 0 0 0 0 0 0 0 0 0.16 0"/>
<feBlend mode="normal" in2="effect1_dropShadow_1109_2210" result="effect2_dropShadow_1109_2210"/>
<feBlend mode="normal" in="SourceGraphic" in2="effect2_dropShadow_1109_2210" result="shape"/>
</filter>
</defs>
</svg>
