<svg width="221" height="77" viewBox="0 0 221 77" fill="none" xmlns="http://www.w3.org/2000/svg">
<g filter="url(#filter0_dd_1109_2201)">
<rect x="12" y="27.2998" width="194" height="34" rx="2" transform="rotate(-5.70937 12 27.2998)" fill="white" shape-rendering="crispEdges"/>
<path d="M36.8153 47.9332L29.3525 48.6793L27.1117 48.9837C26.9259 49.0023 26.8244 48.9254 26.8072 48.7529C26.7886 48.5671 26.8523 48.467 26.9982 48.4524L27.5714 48.3549C27.8341 48.3018 28.045 48.2003 28.2042 48.0504C28.3621 47.8872 28.4291 47.6862 28.4052 47.4474L27.2751 36.1438C27.2274 35.6662 26.8957 35.4313 26.2801 35.4393L25.697 35.4373C25.5511 35.4519 25.4695 35.3729 25.4522 35.2005C25.4337 35.0147 25.5172 34.9126 25.703 34.894L27.9597 34.7488L35.0245 34.0424C35.2766 34.0172 35.4902 34.0763 35.6653 34.2196C35.8391 34.3496 35.9505 34.526 35.9996 34.7489L36.4613 36.5519C36.5117 36.7881 36.4241 36.9175 36.1986 36.94C35.9863 36.9612 35.8364 36.869 35.7488 36.6634C35.4862 36.0464 35.1425 35.6252 34.718 35.3997C34.2935 35.1741 33.7296 35.0965 33.0264 35.1668L29.902 35.4792C29.6101 35.5083 29.38 35.6185 29.2115 35.8095C29.0549 35.9859 28.9912 36.2201 29.0204 36.512L29.4382 40.6912C29.4555 40.8636 29.5503 40.9412 29.7228 40.924L33.4243 40.5539C33.6101 40.5354 33.7514 40.4743 33.8482 40.3708C33.9451 40.2674 34.0028 40.1745 34.0214 40.0922C34.0532 40.0087 34.0917 39.8574 34.1368 39.6385L34.1906 39.3718C34.2144 39.2086 34.306 39.1191 34.4652 39.1032C34.6244 39.0873 34.7133 39.1722 34.7319 39.3579L34.8214 41.0574L35.0621 42.6614C35.0794 42.8339 35.0031 42.942 34.8333 42.9858C34.6741 43.0017 34.5732 42.9314 34.5308 42.7749L34.4353 42.4226C34.2469 41.7447 33.9404 41.4269 33.5159 41.4694L29.7944 41.8414C29.6352 41.8573 29.5649 41.9582 29.5835 42.1439L30.0451 46.7609C30.0729 47.0395 30.1817 47.2564 30.3714 47.4117C30.5731 47.5523 30.8199 47.608 31.1117 47.5788L34.3954 47.2505C35.0853 47.1816 35.6591 46.9567 36.1168 46.5759C36.5865 46.1806 36.8883 45.6479 37.0223 44.9779C37.0674 44.759 37.1629 44.6423 37.3089 44.6277C37.4681 44.6118 37.5782 44.641 37.6392 44.7153C37.7122 44.775 37.7467 44.8519 37.7427 44.9461L37.6312 47.0476C37.6272 47.2758 37.547 47.4781 37.3904 47.6546C37.2458 47.8164 37.0541 47.9093 36.8153 47.9332ZM41.1676 37.2271C41.3799 37.2059 41.5012 37.3478 41.5318 37.653L41.6332 38.6679C41.6399 38.7343 41.6631 38.7654 41.7029 38.7615C41.7559 38.7562 41.8183 38.7097 41.8899 38.6222C42.5626 37.5767 43.5159 36.9923 44.7497 36.869C45.9968 36.7443 46.9852 36.9805 47.7149 37.5775C48.4433 38.1613 48.8691 39.0701 48.9925 40.3039L49.4959 45.3388C49.5197 45.5776 49.6318 45.7607 49.8322 45.8881C50.0445 46.0009 50.2846 46.0573 50.5526 46.0573L51.0939 46.0433C51.2544 46.0407 51.3433 46.1256 51.3605 46.2981C51.3778 46.4706 51.2869 46.5667 51.0879 46.5866L48.9506 46.7199L47.1475 46.9806C46.9485 47.0005 46.8404 46.9242 46.8232 46.7517C46.8059 46.5792 46.8762 46.4784 47.0341 46.4492L47.2889 46.3836C47.7718 46.2549 47.99 45.9584 47.9436 45.494L47.4124 40.1805C47.3301 39.3579 47.0343 38.7443 46.5248 38.3397C46.0154 37.935 45.3494 37.7738 44.5268 37.856C43.7175 37.937 43.0548 38.3449 42.5387 39.0799C42.0345 39.8003 41.8149 40.4855 41.8799 41.1356L42.3714 46.0511C42.4191 46.5287 42.7117 46.7742 43.249 46.7875L43.5913 46.7934C43.7518 46.7908 43.8407 46.8757 43.858 47.0482C43.8752 47.2207 43.7843 47.3168 43.5853 47.3367L41.6868 47.4461L39.5454 47.7406C39.3464 47.7605 39.2383 47.6842 39.2211 47.5118C39.2038 47.3393 39.2741 47.2385 39.432 47.2093L39.9853 47.1138C40.248 47.0607 40.4589 46.9592 40.6181 46.8093C40.776 46.6461 40.843 46.4451 40.8191 46.2063L40.0909 38.9226C40.0644 38.6573 39.9868 38.4841 39.8581 38.4032C39.7413 38.3077 39.5569 38.2725 39.3048 38.2977L38.6282 38.3654C38.4557 38.3826 38.3609 38.305 38.3436 38.1325C38.3264 37.9601 38.4027 37.8519 38.5725 37.8081L41.1278 37.2311C41.141 37.2298 41.1543 37.2284 41.1676 37.2271ZM58.6392 44.7865C58.6644 45.0386 58.4183 45.3245 57.9009 45.6442C57.3967 45.9626 56.8727 46.149 56.3287 46.2034C55.3602 46.3002 54.6412 46.1443 54.1715 45.7356C53.7138 45.3124 53.4312 44.5635 53.3238 43.4888L52.7269 37.5186C52.7123 37.3727 52.6188 37.3083 52.4463 37.3256L51.2323 37.4469C51.166 37.4536 51.1043 37.4396 51.0473 37.4051C50.9889 37.3574 50.963 37.2997 50.9697 37.232L50.9776 36.7086C50.9882 36.5467 51.0599 36.4592 51.1926 36.4459L52.3866 36.3265C52.506 36.3146 52.5584 36.2357 52.5438 36.0897L52.4464 33.3056C52.4344 33.0522 52.5479 32.9136 52.7867 32.8897C52.9724 32.8711 53.1084 32.958 53.1946 33.1504L54.1319 35.8907C54.189 36.0592 54.2971 36.1355 54.4563 36.1196L57.4215 35.8232C57.6073 35.8046 57.6882 35.8769 57.6643 36.0401L57.6563 36.5635C57.6457 36.7253 57.5741 36.8129 57.4414 36.8262L54.4165 37.1286C54.3103 37.1392 54.2646 37.2175 54.2791 37.3634L54.8959 43.5327C55.0206 44.7798 55.5672 45.3549 56.5357 45.2581C56.9735 45.2143 57.3968 45.0916 57.8054 44.8899L58.4184 44.5875C58.551 44.5742 58.6247 44.6405 58.6392 44.7865ZM68.0231 38.4616C68.1027 39.2576 67.7843 39.6914 67.0679 39.7631L61.3364 40.3361C61.1772 40.352 61.1089 40.4727 61.1315 40.6983C61.28 41.9162 61.7284 42.8495 62.4767 43.4983C63.2369 44.1325 64.141 44.3972 65.1891 44.2924C66.2505 44.1863 67.0127 43.9024 67.4758 43.4407C67.635 43.2908 67.7948 43.2815 67.9554 43.4129C68.1159 43.5442 68.1126 43.7121 67.9454 43.9164C67.2767 44.7336 66.2923 45.2072 64.9921 45.3372C63.3602 45.5004 62.0335 45.164 61.012 44.3282C60.0024 43.4777 59.414 42.2167 59.2469 40.545C59.1116 39.1917 59.4512 37.9652 60.2659 36.8654C61.0792 35.7523 62.116 35.1327 63.3764 35.0067C64.65 34.8794 65.7154 35.148 66.5724 35.8127C67.4282 36.4642 67.9117 37.3471 68.0231 38.4616ZM66.2062 38.3819C66.1266 37.5859 65.8407 36.9378 65.3485 36.4376C64.8683 35.9228 64.2368 35.7046 63.454 35.7828C62.6845 35.8598 62.0596 36.2438 61.5793 36.935C61.099 37.6263 60.9 38.3831 60.9822 39.2057C61.0035 39.418 61.1003 39.5155 61.2728 39.4983L65.651 39.0605C66.0622 39.0194 66.2473 38.7932 66.2062 38.3819ZM71.8739 34.1571C72.0861 34.1359 72.2075 34.2779 72.238 34.583L72.3455 35.6577C72.3521 35.724 72.382 35.7545 72.435 35.7492C72.4881 35.7439 72.5438 35.6981 72.6022 35.6119C72.8689 35.1966 73.2523 34.8099 73.7525 34.4517C74.2646 34.0789 74.7263 33.872 75.1376 33.8308C75.5621 33.7884 75.8918 33.8023 76.1267 33.8726C76.3615 33.943 76.4849 34.0378 76.4968 34.1572L76.65 35.6896C76.6699 35.8886 76.587 35.9974 76.4012 36.016C76.2951 36.0266 76.1459 35.941 75.9535 35.7592C75.5369 35.3453 75.0301 35.1682 74.4331 35.2278C73.8493 35.2862 73.3797 35.6146 73.0241 36.2129C72.6685 36.8112 72.5431 37.6345 72.6479 38.6826L73.0777 42.9812C73.1254 43.4588 73.5035 43.689 74.212 43.6717L75.0339 43.6499C75.1944 43.6472 75.2833 43.7321 75.3006 43.9046C75.3178 44.0771 75.2269 44.1733 75.0279 44.1931L72.3931 44.3762L70.2517 44.6707C70.0527 44.6906 69.9446 44.6143 69.9274 44.4418C69.9101 44.2693 69.9804 44.1685 70.1383 44.1393L70.6916 44.0438C70.9542 43.9907 71.1652 43.8892 71.3244 43.7393C71.4823 43.5761 71.5493 43.3752 71.5254 43.1363L70.7972 35.8527C70.7707 35.5873 70.6931 35.4142 70.5644 35.3332C70.4476 35.2377 70.2632 35.2026 70.0111 35.2278L69.3345 35.2954C69.162 35.3126 69.0672 35.235 69.0499 35.0626C69.0327 34.8901 69.109 34.782 69.2788 34.7382L71.8341 34.1611C71.8473 34.1598 71.8606 34.1585 71.8739 34.1571ZM91.4556 38.0886C91.2964 36.4965 90.8546 35.2945 90.1302 34.4826C89.4059 33.6706 88.5661 33.3124 87.6108 33.4079C86.6689 33.502 85.9849 33.8317 85.559 34.3969C85.1451 34.9475 84.9666 35.508 85.0237 36.0785L85.4236 40.0785C85.4873 40.7154 85.8223 41.2514 86.4286 41.6866C87.0468 42.1071 87.6942 42.2836 88.3709 42.216C89.4322 42.1098 90.2415 41.6939 90.7988 40.9682C91.356 40.2425 91.5749 39.2827 91.4556 38.0886ZM84.3849 32.9063C84.5972 32.8851 84.7186 33.027 84.7491 33.3322L84.7869 33.7103C84.8028 33.8695 84.8592 33.8974 84.9561 33.7939C85.0662 33.6891 85.2148 33.567 85.4019 33.4277C85.5876 33.2752 85.8795 33.112 86.2775 32.9382C86.6742 32.7511 87.0848 32.6364 87.5094 32.5939C89.0616 32.4387 90.3426 32.7864 91.3522 33.6368C92.3737 34.4727 92.9628 35.6733 93.1193 37.2389C93.2758 38.8044 92.9182 40.1198 92.0465 41.1852C91.1735 42.2372 90.0405 42.8329 88.6475 42.9722C87.6259 43.0743 86.7091 42.8846 85.8972 42.403C85.8255 42.3565 85.7652 42.3559 85.7161 42.401C85.6803 42.4448 85.667 42.5131 85.6763 42.6059L86.1856 47.7006C86.2334 48.1782 86.5259 48.4236 87.0632 48.4369L87.4055 48.4429C87.5661 48.4402 87.655 48.5251 87.6722 48.6976C87.6894 48.8701 87.5986 48.9663 87.3996 48.9862L85.501 49.0956L83.3597 49.3901C83.1607 49.41 83.0526 49.3337 83.0353 49.1612C83.0181 48.9887 83.0884 48.8879 83.2463 48.8587L83.7995 48.7632C84.0622 48.7101 84.2725 48.602 84.4304 48.4388C84.5896 48.2889 84.6572 48.0946 84.6334 47.8557L83.3083 34.6018C83.2817 34.3365 83.2041 34.1633 83.0754 34.0824C82.9587 33.9869 82.7743 33.9517 82.5222 33.9769L81.8456 34.0446C81.6731 34.0618 81.5782 33.9842 81.561 33.8117C81.5438 33.6392 81.62 33.5311 81.7899 33.4873L84.3451 32.9103C84.3584 32.909 84.3717 32.9076 84.3849 32.9063ZM96.3692 25.8993C96.5815 25.8781 96.7029 26.0201 96.7334 26.3252L97.4098 33.0915C97.4165 33.1578 97.4397 33.189 97.4795 33.185C97.5326 33.1797 97.5949 33.1333 97.6666 33.0457C98.3392 32.0003 99.2925 31.4159 100.526 31.2925C101.773 31.1678 102.762 31.404 103.492 32.001C104.22 32.5848 104.646 33.4936 104.769 34.7275L105.272 39.7624C105.296 40.0012 105.402 40.1849 105.589 40.3136C105.775 40.429 106.001 40.4868 106.269 40.4868L106.831 40.4709C106.991 40.4682 107.08 40.5531 107.097 40.7256C107.115 40.8981 107.024 40.9943 106.825 41.0142L104.667 41.1494L102.884 41.4081C102.685 41.428 102.577 41.3517 102.56 41.1792C102.543 41.0068 102.613 40.9059 102.771 40.8768L103.006 40.8131C103.527 40.6671 103.765 40.3686 103.72 39.9176L103.189 34.604C103.107 33.7815 102.811 33.1679 102.301 32.7632C101.792 32.3585 101.126 32.1973 100.303 32.2796C99.4941 32.3605 98.8314 32.7684 98.3153 33.5034C97.8111 34.2238 97.5916 34.9091 97.6566 35.5592L98.148 40.4747C98.1958 40.9523 98.4883 41.1977 99.0256 41.211L99.3281 41.221C99.4886 41.2183 99.5775 41.3032 99.5948 41.4757C99.612 41.6482 99.5211 41.7444 99.3221 41.7643L97.4634 41.8697L95.3221 42.1642C95.1231 42.1841 95.0149 42.1078 94.9977 41.9353C94.9804 41.7628 95.0508 41.662 95.2086 41.6328L95.7619 41.5373C96.0246 41.4842 96.2355 41.3828 96.3947 41.2328C96.5526 41.0697 96.6196 40.8687 96.5957 40.6299L95.2925 27.5948C95.266 27.3295 95.1884 27.1564 95.0597 27.0754C94.9429 26.9799 94.7585 26.9447 94.5065 26.9699L93.8298 27.0376C93.6574 27.0548 93.5625 26.9772 93.5453 26.8047C93.528 26.6323 93.6043 26.5241 93.7741 26.4804L96.3294 25.9033C96.3427 25.902 96.3559 25.9006 96.3692 25.8993ZM112.341 30.1113C113.867 29.9587 115.129 30.315 116.126 31.18C117.137 32.0437 117.721 33.2583 117.878 34.8239C118.033 36.3761 117.707 37.675 116.9 38.7204C116.092 39.7526 114.912 40.3463 113.36 40.5015C111.821 40.6553 110.546 40.3004 109.535 39.4367C108.537 38.5716 107.962 37.3696 107.808 35.8306C107.654 34.2916 107.993 32.9915 108.825 31.9301C109.657 30.8688 110.829 30.2625 112.341 30.1113ZM115.211 32.2765C114.935 31.7949 114.557 31.4307 114.077 31.1839C113.608 30.9226 113.056 30.8237 112.419 30.8874C111.318 30.9975 110.532 31.4446 110.061 32.2287C109.59 33.0127 109.413 33.9952 109.531 35.1759C109.653 36.3965 109.974 37.4566 110.492 38.3561C110.767 38.8244 111.138 39.1893 111.607 39.4507C112.087 39.6974 112.632 39.7903 113.243 39.7293C114.37 39.6166 115.163 39.1688 115.621 38.3861C116.092 37.602 116.267 36.6063 116.146 35.399C116.026 34.1917 115.714 33.1508 115.211 32.2765ZM126.446 38.0073C126.471 38.2594 126.225 38.5453 125.707 38.865C125.203 39.1834 124.679 39.3698 124.135 39.4242C123.167 39.521 122.448 39.3651 121.978 38.9565C121.52 38.5332 121.238 37.7843 121.13 36.7096L120.533 30.7394C120.519 30.5935 120.425 30.5291 120.253 30.5464L119.039 30.6677C118.972 30.6744 118.911 30.6604 118.854 30.6259C118.795 30.5782 118.77 30.5205 118.776 30.4528L118.784 29.9294C118.795 29.7676 118.866 29.68 118.999 29.6667L120.193 29.5474C120.313 29.5354 120.365 29.4565 120.35 29.3105L120.253 26.5264C120.241 26.273 120.354 26.1344 120.593 26.1105C120.779 26.0919 120.915 26.1788 121.001 26.3712L121.938 29.1116C121.995 29.2801 122.104 29.3563 122.263 29.3404L125.228 29.044C125.414 29.0254 125.495 29.0977 125.471 29.2609L125.463 29.7843C125.452 29.9461 125.381 30.0337 125.248 30.047L122.223 30.3494C122.117 30.36 122.071 30.4383 122.086 30.5842L122.702 36.7535C122.827 38.0006 123.374 38.5757 124.342 38.4789C124.78 38.4351 125.203 38.3124 125.612 38.1108L126.225 37.8083C126.358 37.795 126.431 37.8614 126.446 38.0073ZM131.601 28.1857C133.127 28.0332 134.388 28.3894 135.386 29.2545C136.397 30.1182 136.981 31.3328 137.137 32.8983C137.292 34.4506 136.967 35.7495 136.16 36.7949C135.352 37.8271 134.172 38.4207 132.619 38.5759C131.08 38.7298 129.806 38.3749 128.795 37.5112C127.797 36.6461 127.221 35.4441 127.067 33.9051C126.913 32.3661 127.252 31.0659 128.084 30.0046C128.916 28.9432 130.088 28.3369 131.601 28.1857ZM134.47 30.351C134.194 29.8694 133.816 29.5052 133.336 29.2584C132.868 28.997 132.315 28.8982 131.678 28.9619C130.577 29.072 129.791 29.519 129.32 30.3031C128.849 31.0872 128.673 32.0696 128.791 33.2504C128.913 34.471 129.233 35.531 129.752 36.4306C130.026 36.8989 130.398 37.2638 130.866 37.5251C131.347 37.7719 131.892 37.8648 132.502 37.8038C133.63 37.691 134.423 37.2433 134.88 36.4605C135.351 35.6765 135.526 34.6808 135.406 33.4734C135.285 32.2661 134.973 31.2253 134.47 30.351ZM144.167 26.9294C145.401 26.806 146.524 27.1828 147.536 28.0598C148.547 28.9235 149.127 30.0983 149.275 31.5843C149.424 33.0702 149.045 34.3743 148.139 35.4967C147.245 36.6045 146.101 37.2281 144.708 37.3673C143.687 37.4695 142.786 37.3719 142.006 37.0747C141.755 36.9792 141.57 36.9374 141.45 36.9493C141.198 36.9745 140.995 37.149 140.839 37.4727C140.778 37.6664 140.688 37.7692 140.569 37.7812C140.317 37.8064 140.192 37.6982 140.195 37.4568C140.204 36.8797 140.198 36.485 140.177 36.2727L138.874 23.2377C138.848 22.9856 138.771 22.8125 138.641 22.7183C138.524 22.6227 138.346 22.5869 138.107 22.6108L137.411 22.6804C137.238 22.6977 137.144 22.6201 137.126 22.4476C137.109 22.2751 137.185 22.167 137.355 22.1232L139.89 21.5481C139.917 21.5455 139.95 21.5422 139.99 21.5382C140.229 21.5143 140.363 21.6549 140.394 21.9601L140.728 26.5094L140.867 27.9025C140.879 28.0219 140.914 28.0988 140.971 28.1333C141.027 28.1545 141.072 28.1433 141.108 28.0995C141.914 27.4428 142.933 27.0527 144.167 26.9294ZM147.592 32.436C147.435 30.8705 147.003 29.6943 146.294 28.9076C145.599 28.1195 144.708 27.7798 143.62 27.8886C142.545 27.996 141.746 28.3841 141.224 29.0527C141.104 29.1987 141.051 29.338 141.064 29.4706L141.578 34.605C141.641 35.2419 141.961 35.7527 142.535 36.1374C143.109 36.5222 143.742 36.6801 144.432 36.6111C145.519 36.5023 146.347 36.0645 146.913 35.2977C147.48 34.5309 147.706 33.577 147.592 32.436ZM155.816 25.7647C157.342 25.6122 158.603 25.9684 159.601 26.8335C160.612 27.6972 161.196 28.9118 161.352 30.4773C161.507 32.0296 161.182 33.3285 160.375 34.3739C159.567 35.4061 158.387 35.9997 156.835 36.1549C155.296 36.3088 154.021 35.9539 153.01 35.0902C152.012 34.2251 151.436 33.0231 151.282 31.4841C151.129 29.9451 151.468 28.6449 152.3 27.5836C153.131 26.5222 154.304 25.9159 155.816 25.7647ZM158.686 27.93C158.41 27.4484 158.032 27.0842 157.551 26.8374C157.083 26.576 156.53 26.4772 155.894 26.5409C154.792 26.651 154.006 27.098 153.535 27.8821C153.064 28.6662 152.888 29.6486 153.006 30.8294C153.128 32.05 153.448 33.11 153.967 34.0096C154.242 34.4779 154.613 34.8428 155.081 35.1041C155.562 35.3509 156.107 35.4438 156.717 35.3828C157.845 35.27 158.638 34.8223 159.095 34.0395C159.566 33.2555 159.742 32.2598 159.621 31.0524C159.5 29.8451 159.188 28.8043 158.686 27.93ZM167.885 24.5581C169.41 24.4056 170.672 24.7618 171.67 25.6269C172.681 26.4906 173.265 27.7052 173.421 29.2707C173.576 30.823 173.25 32.1218 172.444 33.1673C171.636 34.1994 170.456 34.7931 168.903 34.9483C167.364 35.1022 166.089 34.7473 165.079 33.8835C164.081 33.0185 163.505 31.8165 163.351 30.2775C163.197 28.7385 163.536 27.4383 164.368 26.377C165.2 25.3156 166.372 24.7093 167.885 24.5581ZM170.754 26.7234C170.478 26.2418 170.1 25.8776 169.62 25.6308C169.152 25.3694 168.599 25.2706 167.962 25.3342C166.861 25.4443 166.075 25.8914 165.604 26.6755C165.133 27.4596 164.957 28.442 165.075 29.6228C165.197 30.8434 165.517 31.9034 166.036 32.803C166.31 33.2713 166.682 33.6361 167.15 33.8975C167.63 34.1443 168.176 34.2372 168.786 34.1762C169.914 34.0634 170.706 33.6157 171.164 32.8329C171.635 32.0488 171.81 31.0531 171.69 29.8458C171.569 28.6385 171.257 27.5977 170.754 26.7234ZM181.989 32.4541C182.014 32.7062 181.768 32.9921 181.251 33.3119C180.747 33.6303 180.223 33.8166 179.679 33.871C178.71 33.9679 177.991 33.812 177.521 33.4033C177.064 32.9801 176.781 32.2311 176.674 31.1565L176.077 25.1863C176.062 25.0403 175.969 24.976 175.796 24.9932L174.582 25.1146C174.516 25.1212 174.454 25.1073 174.397 25.0728C174.339 25.025 174.313 24.9673 174.32 24.8997L174.328 24.3763C174.338 24.2144 174.41 24.1269 174.542 24.1136L175.737 23.9942C175.856 23.9823 175.908 23.9033 175.894 23.7574L175.796 20.9733C175.784 20.7199 175.898 20.5812 176.137 20.5574C176.322 20.5388 176.458 20.6257 176.545 20.8181L177.482 23.5584C177.539 23.7269 177.647 23.8032 177.806 23.7873L180.771 23.4908C180.957 23.4723 181.038 23.5446 181.014 23.7077L181.006 24.2311C180.996 24.393 180.924 24.4806 180.791 24.4938L177.766 24.7963C177.66 24.8069 177.614 24.8851 177.629 25.0311L178.246 31.2003C178.371 32.4474 178.917 33.0226 179.886 32.9257C180.323 32.882 180.747 32.7593 181.155 32.5576L181.768 32.2551C181.901 32.2419 181.975 32.3082 181.989 32.4541ZM183.863 17.1519C184.075 17.1306 184.196 17.2726 184.227 17.5777L184.903 24.344C184.91 24.4103 184.933 24.4415 184.973 24.4375C185.026 24.4322 185.088 24.3858 185.16 24.2982C185.833 23.2528 186.786 22.6684 188.02 22.545C189.267 22.4204 190.255 22.6565 190.985 23.2536C191.713 23.8373 192.139 24.7462 192.263 25.98L192.766 31.0149C192.79 31.2537 192.895 31.4375 193.082 31.5662C193.268 31.6816 193.495 31.7393 193.763 31.7393L194.324 31.7234C194.485 31.7208 194.574 31.8057 194.591 31.9781C194.608 32.1506 194.517 32.2468 194.318 32.2667L192.161 32.402L190.378 32.6606C190.179 32.6805 190.071 32.6042 190.053 32.4318C190.036 32.2593 190.107 32.1585 190.264 32.1293L190.499 32.0656C191.021 31.9197 191.259 31.6212 191.214 31.1701L190.682 25.8566C190.6 25.034 190.304 24.4204 189.795 24.0157C189.285 23.6111 188.619 23.4499 187.797 23.5321C186.988 23.613 186.325 24.021 185.809 24.756C185.305 25.4764 185.085 26.1616 185.15 26.8117L185.641 31.7272C185.689 32.2048 185.982 32.4503 186.519 32.4635L186.822 32.4735C186.982 32.4708 187.071 32.5558 187.088 32.7282C187.106 32.9007 187.015 32.9969 186.816 33.0168L184.957 33.1222L182.816 33.4167C182.617 33.4366 182.508 33.3603 182.491 33.1878C182.474 33.0154 182.544 32.9145 182.702 32.8854L183.255 32.7898C183.518 32.7368 183.729 32.6353 183.888 32.4854C184.046 32.3222 184.113 32.1212 184.089 31.8824L182.786 18.8474C182.759 18.582 182.682 18.4089 182.553 18.328C182.436 18.2324 182.252 18.1973 182 18.2225L181.323 18.2901C181.151 18.3074 181.056 18.2297 181.039 18.0573C181.022 17.8848 181.098 17.7767 181.268 17.7329L183.823 17.1558C183.836 17.1545 183.849 17.1532 183.863 17.1519Z" fill="#2E2E2E"/>
<path d="M26.4927 51.6385L84.0324 45.8858L84.0722 46.2838L26.5325 52.0365L26.4927 51.6385ZM86.3832 45.6507L195.072 34.7842L195.112 35.1822L86.423 46.0487L86.3832 45.6507Z" fill="#2E2E2E"/>
</g>
<defs>
<filter id="filter0_dd_1109_2201" x="0" y="0" width="220.42" height="77.1313" filterUnits="userSpaceOnUse" color-interpolation-filters="sRGB">
<feFlood flood-opacity="0" result="BackgroundImageFix"/>
<feColorMatrix in="SourceAlpha" type="matrix" values="0 0 0 0 0 0 0 0 0 0 0 0 0 0 0 0 0 0 127 0" result="hardAlpha"/>
<feOffset dy="4"/>
<feGaussianBlur stdDeviation="6"/>
<feComposite in2="hardAlpha" operator="out"/>
<feColorMatrix type="matrix" values="0 0 0 0 0 0 0 0 0 0 0 0 0 0 0 0 0 0 0.12 0"/>
<feBlend mode="normal" in2="BackgroundImageFix" result="effect1_dropShadow_1109_2201"/>
<feColorMatrix in="SourceAlpha" type="matrix" values="0 0 0 0 0 0 0 0 0 0 0 0 0 0 0 0 0 0 127 0" result="hardAlpha"/>
<feOffset dy="4"/>
<feGaussianBlur stdDeviation="2"/>
<feComposite in2="hardAlpha" operator="out"/>
<feColorMatrix type="matrix" values="0 0 0 0 0 0 0 0 0 0 0 0 0 0 0 0 0 0 0.16 0"/>
<feBlend mode="normal" in2="effect1_dropShadow_1109_2201" result="effect2_dropShadow_1109_2201"/>
<feBlend mode="normal" in="SourceGraphic" in2="effect2_dropShadow_1109_2201" result="shape"/>
</filter>
</defs>
</svg>
