<svg width="181" height="72" viewBox="0 0 181 72" fill="none" xmlns="http://www.w3.org/2000/svg">
<g filter="url(#filter0_dd_1109_2205)">
<rect x="12" y="21.4629" width="154" height="34" rx="2" transform="rotate(-5.0153 12 21.4629)" fill="white" shape-rendering="crispEdges"/>
<path d="M33.8275 34.7656C34.3739 34.1288 34.6075 33.3587 34.5282 32.4555C34.4489 31.5523 34.086 30.848 33.4393 30.3426C32.7927 29.8372 31.9181 29.6329 30.8157 29.7296L29.6203 29.8346C29.089 29.8812 28.8466 30.1701 28.8933 30.7014L29.3374 35.762C29.3525 35.9346 29.4332 36.0146 29.5793 36.0017L31.3525 35.8461C32.4549 35.7494 33.2799 35.3892 33.8275 34.7656ZM31.1571 28.8163C32.6846 28.6822 33.9043 28.9299 34.8161 29.5593C35.7412 30.1875 36.2551 31.086 36.3577 32.2548C36.4591 33.4104 36.1252 34.4101 35.356 35.2539C34.5868 36.0977 33.4983 36.5814 32.0904 36.7049L29.7394 36.9112C29.5402 36.9287 29.4475 37.0172 29.4615 37.1765L29.8549 41.6593C29.8759 41.8984 29.9791 42.0834 30.1646 42.2144C30.3501 42.3453 30.5696 42.4064 30.8232 42.3975L31.6634 42.3639C31.8095 42.3511 31.8908 42.4376 31.9071 42.6236C31.9222 42.7963 31.8368 42.8908 31.6509 42.9071L29.1535 43.0459L26.9489 43.3197C26.7497 43.3372 26.6431 43.2662 26.6291 43.1069C26.6128 42.9209 26.6837 42.8143 26.842 42.787L27.4162 42.6965C27.9573 42.6088 28.2057 42.3127 28.1614 41.8079L27.1683 30.4914C27.1263 30.0133 26.7975 29.7744 26.1819 29.7749L25.5989 29.7658C25.4504 29.7521 25.3698 29.6722 25.357 29.5261C25.3407 29.3401 25.4255 29.239 25.6114 29.2227L28.3679 29.0611L31.1571 28.8163ZM40.2878 31.8095C40.5004 31.7909 40.62 31.9343 40.6468 32.2398L40.7412 33.3157C40.7471 33.3821 40.7765 33.4129 40.8297 33.4083C40.8828 33.4036 40.9391 33.3585 40.9985 33.273C41.2702 32.861 41.6583 32.479 42.1628 32.1268C42.6794 31.7603 43.1435 31.5589 43.5553 31.5228C43.9803 31.4855 44.3098 31.5034 44.5438 31.5766C44.7777 31.6497 44.8999 31.7461 44.9104 31.8656L45.0451 33.3997C45.0626 33.599 44.9783 33.7067 44.7924 33.7231C44.6861 33.7324 44.5379 33.645 44.3477 33.4609C43.9362 33.042 43.4316 32.8587 42.8339 32.9112C42.2495 32.9625 41.7759 33.2851 41.4131 33.8791C41.0503 34.4731 40.9149 35.2947 41.007 36.344L41.3847 40.6475C41.4266 41.1256 41.8019 41.3604 42.5105 41.3518L43.3326 41.3398C43.4932 41.3391 43.5811 41.4251 43.5962 41.5978C43.6114 41.7705 43.5193 41.8655 43.3201 41.883L40.6832 42.0341L38.5385 42.3026C38.3392 42.3201 38.232 42.2425 38.2169 42.0699C38.2017 41.8972 38.2733 41.7972 38.4315 41.77L38.9858 41.6812C39.2492 41.6313 39.4613 41.5323 39.6223 41.3844C39.7822 41.2231 39.8516 41.0229 39.8306 40.7839L39.1907 33.4919C39.1674 33.2262 39.0919 33.0522 38.9642 32.9697C38.8486 32.8728 38.6646 32.8354 38.4123 32.8575L37.7349 32.917C37.5622 32.9321 37.4683 32.8534 37.4531 32.6807C37.438 32.508 37.5156 32.4008 37.6859 32.3591L40.248 31.813C40.2613 31.8119 40.2746 31.8107 40.2878 31.8095ZM50.7283 40.6908C50.8888 40.6901 50.9767 40.7761 50.9918 40.9488C51.007 41.1214 50.915 41.2165 50.7157 41.234L48.816 41.3204L46.6713 41.5889C46.472 41.6064 46.3648 41.5288 46.3497 41.3561C46.3345 41.1835 46.4061 41.0835 46.5643 41.0562L47.1187 40.9674C47.382 40.9176 47.5941 40.8186 47.7551 40.6707C47.915 40.5094 47.9844 40.3092 47.9634 40.0701L47.3235 32.7782C47.3002 32.5125 47.2247 32.3385 47.097 32.256C46.9814 32.159 46.7974 32.1216 46.5451 32.1438L45.8677 32.2032C45.695 32.2184 45.6011 32.1396 45.5859 31.967C45.5708 31.7943 45.6484 31.6871 45.8187 31.6454L48.3808 31.0993C48.6175 31.0518 48.7505 31.194 48.7796 31.5261L49.5175 39.9338C49.5594 40.4119 49.849 40.6609 50.3861 40.6807L50.7283 40.6908ZM46.8417 28.2028C46.6539 28.0453 46.5483 27.8337 46.525 27.568C46.5017 27.3024 46.5688 27.0757 46.7263 26.8878C46.8971 26.6988 47.1153 26.5927 47.3809 26.5694C47.6466 26.5461 47.88 26.6126 48.0811 26.7689C48.2822 26.9253 48.3944 27.1363 48.4177 27.4019C48.441 27.6676 48.3673 27.8949 48.1965 28.0839C48.0257 28.2729 47.8075 28.379 47.5418 28.4023C47.2762 28.4256 47.0428 28.3591 46.8417 28.2028ZM61.2254 30.1126C61.3981 30.0975 61.4914 30.1696 61.5054 30.329C61.5194 30.4884 61.4545 30.5878 61.3107 30.6271L60.9374 30.7201C60.5714 30.8192 60.3146 31.096 60.1671 31.5507L57.3684 40.61C57.3257 40.7342 57.2181 40.8039 57.0454 40.8191C56.886 40.833 56.7745 40.7826 56.7109 40.6677L52.3718 32.1745C52.1774 31.79 51.8847 31.5815 51.4937 31.5489L51.1099 31.5223C50.9615 31.5086 50.8803 31.422 50.8663 31.2627C50.8523 31.1033 50.9383 31.0154 51.1243 30.9991L53.1037 30.9057L55.0093 30.6581C55.2351 30.6383 55.355 30.7081 55.369 30.8675C55.383 31.0269 55.3048 31.1274 55.1345 31.1692L54.7196 31.2457C54.2449 31.3275 54.021 31.5212 54.0478 31.8267C54.0571 31.9329 54.0774 32.0115 54.1086 32.0623L57.1023 38.2643C57.1347 38.3284 57.1708 38.3587 57.2106 38.3552C57.2638 38.3505 57.3013 38.3204 57.3232 38.265L59.2887 31.6077C59.3314 31.4835 59.348 31.3682 59.3387 31.262C59.3177 31.0229 59.0996 30.9015 58.6843 30.8978L58.2824 30.8929C58.1207 30.8803 58.0328 30.7944 58.0188 30.635C58.0048 30.4756 58.0908 30.3877 58.2768 30.3714L59.7979 30.3182L61.2254 30.1126ZM72.3611 39.1537C72.3798 39.3663 72.15 39.4935 71.6718 39.5355C70.8483 39.6077 70.1225 39.3435 69.4942 38.7428C69.3931 38.658 69.3159 38.6179 69.2628 38.6226C69.223 38.6261 69.1601 38.6717 69.0741 38.7596C68.269 39.4995 67.3285 39.9166 66.2527 40.011C65.4956 40.0775 64.8111 39.9033 64.1991 39.4886C63.586 39.0605 63.2468 38.4746 63.1816 37.7308C63.0988 36.7878 63.4476 36.0344 64.228 35.4707C64.9212 34.9815 66.0344 34.5492 67.5674 34.1738C67.9335 34.0747 68.1818 34.0061 68.3123 33.9679C68.4838 33.9394 68.5619 33.8389 68.5468 33.6662L68.3859 31.8332C68.3381 31.2887 68.1143 30.8733 67.7144 30.5872C67.3278 30.2999 66.829 30.183 66.218 30.2366C65.6203 30.2891 65.0921 30.5228 64.6333 30.9379C64.1878 31.3517 63.9277 31.8966 63.8532 32.5723C63.8308 32.7751 63.7267 32.8846 63.5407 32.9009C63.368 32.9161 63.273 32.824 63.2555 32.6248L63.1243 31.1305C63.1045 30.9047 63.163 30.7323 63.2998 30.6132C63.956 30.0069 64.9415 29.646 66.2565 29.5306C67.5714 29.4152 68.5196 29.6197 69.101 30.1443C69.6824 30.6688 70.0128 31.3826 70.092 32.2858L70.5589 37.6054C70.5962 38.0304 70.7593 38.3641 71.0482 38.6064C71.3505 38.8476 71.6876 38.9519 72.0595 38.9192C72.2454 38.9029 72.346 38.9811 72.3611 39.1537ZM68.8514 37.5946L68.6328 35.1042C68.6153 34.9049 68.5203 34.8129 68.3476 34.8281C68.3343 34.8292 68.3144 34.831 68.2878 34.8333C65.9359 35.3342 64.8113 36.169 64.9139 37.3378C64.9616 37.8824 65.1788 38.2984 65.5654 38.5857C65.9509 38.8597 66.3627 38.9775 66.8011 38.939C67.2526 38.8994 67.6369 38.7786 67.9538 38.5768C68.284 38.3739 68.5146 38.1796 68.6455 37.9941C68.7897 37.8075 68.8584 37.6743 68.8514 37.5946ZM81.3506 31.3781C81.3704 31.6039 81.2874 31.725 81.1014 31.7413C80.942 31.7553 80.8259 31.6517 80.7529 31.4306C80.4896 30.7175 80.1134 30.1683 79.6245 29.7829C79.1356 29.3975 78.5459 29.2351 77.8552 29.2957C76.859 29.3831 76.0814 29.8261 75.5224 30.6247C74.9623 31.41 74.7358 32.4137 74.8431 33.6356C74.9771 35.1631 75.4493 36.2727 76.2595 36.9646C77.083 37.6552 77.9862 37.9574 78.9691 37.8712C79.9653 37.7837 80.758 37.5134 81.3473 37.0601C81.4345 36.9856 81.5179 36.9448 81.5976 36.9378C81.6773 36.9308 81.746 36.9515 81.8038 37C81.8749 37.0473 81.9151 37.1241 81.9244 37.2303C81.9326 37.3233 81.8882 37.4276 81.7913 37.5432C81.1248 38.3378 80.0678 38.7987 78.62 38.9257C77.1855 39.0516 75.9432 38.6989 74.8932 37.8675C73.8553 37.0216 73.26 35.7287 73.1073 33.9887C72.9872 32.6207 73.3622 31.4032 74.2323 30.3364C75.1145 29.2551 76.2595 28.6527 77.6675 28.5292C78.6371 28.4441 79.4607 28.5257 80.1383 28.7741C80.8148 29.0092 81.1682 29.2994 81.1985 29.6448L81.3506 31.3781ZM90.4679 28.5703C90.4457 28.3179 90.253 28.1809 89.8897 28.1593L89.5276 28.1509C89.3659 28.1383 89.278 28.0523 89.264 27.8929C89.2501 27.7336 89.336 27.6457 89.522 27.6294L91.083 27.5727L92.5105 27.3671C92.6832 27.352 92.7765 27.4241 92.7905 27.5835C92.8045 27.7429 92.7396 27.8423 92.5958 27.8816L92.2225 27.9746C91.79 28.0795 91.5006 28.3659 91.3543 28.8338L87.9562 39.0701C87.2215 41.2225 86.4095 42.6456 85.5201 43.3394C85.3192 43.4909 85.1723 43.5707 85.0793 43.5788C84.9863 43.587 84.9254 43.579 84.8965 43.5547L84.2324 42.8501C84.1734 42.7883 84.1398 42.711 84.1317 42.618C84.1235 42.525 84.157 42.4485 84.232 42.3884C84.6384 42.1385 84.9414 41.9313 85.1411 41.7665C85.342 41.615 85.6005 41.3581 85.9167 40.9957C86.4498 40.36 87.0301 39.1179 87.6576 37.2693C87.6916 37.1994 87.7045 37.1179 87.6964 37.025C87.6882 36.932 87.6607 36.8474 87.6139 36.7712L83.7981 29.4367C83.6193 29.0776 83.2929 28.8654 82.8187 28.7999L82.4349 28.7733C82.2864 28.7596 82.2052 28.673 82.1912 28.5136C82.1772 28.3543 82.2632 28.2664 82.4492 28.2501L84.4286 28.1567L86.394 27.9039C86.6198 27.8841 86.7397 27.9539 86.7537 28.1133C86.7677 28.2726 86.6895 28.3732 86.5192 28.4149L86.1043 28.4915C85.8531 28.5269 85.6808 28.6223 85.5873 28.7778C85.4939 28.9332 85.4952 29.1004 85.5912 29.2793L88.3583 34.9592C88.3739 34.9846 88.4022 35.0022 88.4433 35.012C88.4964 35.0073 88.5333 34.9706 88.5541 34.9019L90.4326 28.8545C90.4631 28.7447 90.4749 28.65 90.4679 28.5703ZM107.528 31.7912C107.388 30.1974 106.961 28.9901 106.246 28.1694C105.532 27.3487 104.696 26.9803 103.74 27.0643C102.797 27.147 102.109 27.4684 101.676 28.0284C101.256 28.5739 101.071 29.1322 101.121 29.7034L101.472 33.708C101.528 34.3455 101.857 34.8855 102.458 35.328C103.071 35.7561 103.716 35.9404 104.393 35.8809C105.456 35.7877 106.27 35.3816 106.836 34.6627C107.402 33.9438 107.633 32.9866 107.528 31.7912ZM100.52 26.5237C100.733 26.505 100.853 26.6484 100.879 26.9539L100.913 27.3325C100.927 27.4919 100.983 27.5204 101.081 27.4181C101.192 27.3146 101.342 27.1944 101.531 27.0574C101.719 26.907 102.012 26.7474 102.412 26.5785C102.811 26.3962 103.223 26.2865 103.648 26.2492C105.202 26.1128 106.479 26.4759 107.478 27.3385C108.49 28.1867 109.064 29.3944 109.202 30.9617C109.339 32.529 108.966 33.84 108.081 34.8947C107.195 35.9361 106.055 36.518 104.661 36.6404C103.638 36.7302 102.724 36.5294 101.918 36.0379C101.846 35.9906 101.786 35.9892 101.736 36.0338C101.7 36.0771 101.686 36.1453 101.694 36.2382L102.142 41.3386C102.184 41.8168 102.473 42.0658 103.01 42.0856L103.353 42.0957C103.513 42.095 103.601 42.181 103.616 42.3536C103.631 42.5263 103.539 42.6214 103.34 42.6389L101.44 42.7253L99.2956 42.9938C99.0963 43.0113 98.9891 42.9337 98.974 42.761C98.9588 42.5883 99.0304 42.4884 99.1886 42.4611L99.7429 42.3723C100.006 42.3224 100.218 42.2169 100.378 42.0556C100.539 41.9076 100.609 41.7141 100.588 41.475L99.4233 28.206C99.4 27.9404 99.3245 27.7663 99.1968 27.6838C99.0812 27.5869 98.8972 27.5495 98.6448 27.5716L97.9674 27.6311C97.7948 27.6462 97.7009 27.5675 97.6857 27.3948C97.6706 27.2221 97.7481 27.1149 97.9185 27.0732L100.481 26.5272C100.494 26.526 100.507 26.5248 100.52 26.5237ZM115.804 25.1824C117.331 25.0484 118.588 25.4199 119.575 26.297C120.576 27.1729 121.145 28.3945 121.282 29.9618C121.419 31.5158 121.077 32.8106 120.258 33.8462C119.438 34.8685 118.25 35.4478 116.696 35.5842C115.156 35.7194 113.885 35.3491 112.885 34.4732C111.897 33.5961 111.336 32.3872 111.201 30.8465C111.066 29.3057 111.421 28.0098 112.265 26.9586C113.11 25.9074 114.289 25.3153 115.804 25.1824ZM118.647 27.3823C118.377 26.8974 118.003 26.5286 117.526 26.2761C117.061 26.009 116.509 25.9035 115.872 25.9595C114.769 26.0562 113.978 26.4937 113.497 27.272C113.017 28.0504 112.829 29.0306 112.932 30.2127C113.04 31.4347 113.347 32.4985 113.855 33.4043C114.124 33.8759 114.491 34.2452 114.956 34.5123C115.433 34.7648 115.977 34.8643 116.588 34.8107C117.717 34.7116 118.515 34.2735 118.983 33.4964C119.463 32.718 119.65 31.7245 119.544 30.5159C119.438 29.3072 119.139 28.2626 118.647 27.3823ZM124.671 18.602C124.884 18.5834 125.003 18.7268 125.03 19.0323L126.273 33.1978C126.315 33.676 126.605 33.925 127.142 33.9448L127.484 33.9549C127.645 33.9542 127.732 34.0402 127.748 34.2128C127.763 34.3855 127.671 34.4806 127.472 34.4981L125.572 34.5845L123.427 34.853C123.228 34.8705 123.121 34.7929 123.105 34.6202C123.09 34.4476 123.162 34.3476 123.32 34.3203L123.874 34.2315C124.138 34.1816 124.35 34.0827 124.511 33.9347C124.671 33.7735 124.74 33.5733 124.719 33.3342L123.574 20.2844C123.551 20.0187 123.475 19.8447 123.347 19.7622C123.232 19.6652 123.048 19.6279 122.796 19.65L122.118 19.7094C121.945 19.7246 121.852 19.6458 121.836 19.4732C121.821 19.3005 121.899 19.1933 122.069 19.1516L124.631 18.6055C124.645 18.6044 124.658 18.6032 124.671 18.602ZM133.224 33.4512C133.384 33.4505 133.472 33.5365 133.487 33.7091C133.502 33.8818 133.41 33.9769 133.211 33.9944L131.311 34.0808L129.167 34.3493C128.967 34.3668 128.86 34.2892 128.845 34.1165C128.83 33.9439 128.902 33.8439 129.06 33.8166L129.614 33.7278C129.877 33.6779 130.09 33.579 130.251 33.431C130.41 33.2698 130.48 33.0696 130.459 32.8305L129.819 25.5386C129.796 25.2729 129.72 25.0988 129.592 25.0164C129.477 24.9194 129.293 24.882 129.041 24.9042L128.363 24.9636C128.19 24.9788 128.097 24.9 128.081 24.7273C128.066 24.5547 128.144 24.4475 128.314 24.4058L130.876 23.8597C131.113 23.8121 131.246 23.9544 131.275 24.2865L132.013 32.6941C132.055 33.1723 132.344 33.4213 132.882 33.4411L133.224 33.4512ZM129.337 20.9632C129.149 20.8056 129.044 20.5941 129.02 20.3284C128.997 20.0628 129.064 19.836 129.222 19.6482C129.393 19.4592 129.611 19.3531 129.876 19.3298C130.142 19.3064 130.375 19.373 130.577 19.5293C130.778 19.6857 130.89 19.8967 130.913 20.1623C130.936 20.428 130.863 20.6553 130.692 20.8443C130.521 21.0332 130.303 21.1394 130.037 21.1627C129.772 21.186 129.538 21.1195 129.337 20.9632ZM142.989 25.9689C143.009 26.1947 142.925 26.3157 142.74 26.332C142.58 26.346 142.464 26.2425 142.391 26.0213C142.128 25.3083 141.752 24.7591 141.263 24.3737C140.774 23.9883 140.184 23.8259 139.493 23.8865C138.497 23.9739 137.72 24.4169 137.161 25.2155C136.6 26.0008 136.374 27.0044 136.481 28.2264C136.615 29.7539 137.087 30.8635 137.898 31.5553C138.721 32.246 139.624 32.5482 140.607 32.4619C141.603 32.3745 142.396 32.1042 142.985 31.6509C143.073 31.5763 143.156 31.5356 143.236 31.5286C143.315 31.5216 143.384 31.5423 143.442 31.5908C143.513 31.6381 143.553 31.7149 143.563 31.8211C143.571 31.9141 143.526 32.0184 143.429 32.134C142.763 32.9286 141.706 33.3894 140.258 33.5165C138.824 33.6424 137.581 33.2896 136.531 32.4582C135.493 31.6124 134.898 30.3195 134.745 28.5795C134.625 27.2114 135 25.994 135.87 24.9272C136.753 23.8459 137.898 23.2435 139.306 23.12C140.275 23.0349 141.099 23.1165 141.776 23.3649C142.453 23.6 142.806 23.8902 142.837 24.2355L142.989 25.9689ZM152.106 23.1611C152.084 22.9087 151.891 22.7717 151.528 22.75L151.166 22.7417C151.004 22.7291 150.916 22.6431 150.902 22.4837C150.888 22.3243 150.974 22.2365 151.16 22.2202L152.721 22.1635L154.149 21.9579C154.321 21.9427 154.415 22.0149 154.429 22.1742C154.443 22.3336 154.378 22.433 154.234 22.4724L153.861 22.5654C153.428 22.6703 153.139 22.9567 152.992 23.4246L149.594 33.6609C148.86 35.8133 148.048 37.2364 147.158 37.9302C146.957 38.0816 146.81 38.1615 146.717 38.1696C146.624 38.1778 146.564 38.1697 146.535 38.1455L145.87 37.4409C145.812 37.3791 145.778 37.3018 145.77 37.2088C145.762 37.1158 145.795 37.0393 145.87 36.9791C146.276 36.7293 146.58 36.522 146.779 36.3573C146.98 36.2058 147.239 35.9489 147.555 35.5865C148.088 34.9508 148.668 33.7087 149.296 31.8601C149.33 31.7902 149.343 31.7087 149.334 31.6157C149.326 31.5228 149.299 31.4382 149.252 31.362L145.436 24.0275C145.257 23.6684 144.931 23.4561 144.457 23.3907L144.073 23.3641C143.925 23.3504 143.843 23.2638 143.829 23.1044C143.815 22.945 143.901 22.8572 144.087 22.8409L146.067 22.7475L148.032 22.4947C148.258 22.4749 148.378 22.5446 148.392 22.704C148.406 22.8634 148.328 22.964 148.157 23.0057L147.742 23.0822C147.491 23.1177 147.319 23.2131 147.225 23.3685C147.132 23.524 147.133 23.6912 147.229 23.8701L149.996 29.55C150.012 29.5754 150.04 29.5929 150.081 29.6027C150.134 29.5981 150.171 29.5614 150.192 29.4926L152.071 23.4452C152.101 23.3355 152.113 23.2408 152.106 23.1611Z" fill="#2E2E2E"/>
<path d="M26.1982 45.9755L85.3444 40.785L85.3793 41.1834L26.2332 46.374L26.1982 45.9755ZM87.7601 40.573L100.015 39.4976L100.05 39.896L87.795 40.9714L87.7601 40.573ZM102.36 39.2917L146.982 35.3757L147.017 35.7742L102.395 39.6902L102.36 39.2917ZM149.398 35.1637L155.541 34.6246L155.576 35.0231L149.433 35.5622L149.398 35.1637Z" fill="#2E2E2E"/>
</g>
<defs>
<filter id="filter0_dd_1109_2205" x="0" y="0" width="180.383" height="71.3325" filterUnits="userSpaceOnUse" color-interpolation-filters="sRGB">
<feFlood flood-opacity="0" result="BackgroundImageFix"/>
<feColorMatrix in="SourceAlpha" type="matrix" values="0 0 0 0 0 0 0 0 0 0 0 0 0 0 0 0 0 0 127 0" result="hardAlpha"/>
<feOffset dy="4"/>
<feGaussianBlur stdDeviation="6"/>
<feComposite in2="hardAlpha" operator="out"/>
<feColorMatrix type="matrix" values="0 0 0 0 0 0 0 0 0 0 0 0 0 0 0 0 0 0 0.12 0"/>
<feBlend mode="normal" in2="BackgroundImageFix" result="effect1_dropShadow_1109_2205"/>
<feColorMatrix in="SourceAlpha" type="matrix" values="0 0 0 0 0 0 0 0 0 0 0 0 0 0 0 0 0 0 127 0" result="hardAlpha"/>
<feOffset dy="4"/>
<feGaussianBlur stdDeviation="2"/>
<feComposite in2="hardAlpha" operator="out"/>
<feColorMatrix type="matrix" values="0 0 0 0 0 0 0 0 0 0 0 0 0 0 0 0 0 0 0.16 0"/>
<feBlend mode="normal" in2="effect1_dropShadow_1109_2205" result="effect2_dropShadow_1109_2205"/>
<feBlend mode="normal" in="SourceGraphic" in2="effect2_dropShadow_1109_2205" result="shape"/>
</filter>
</defs>
</svg>
