<svg width="471" height="428" viewBox="0 0 471 428" fill="none" xmlns="http://www.w3.org/2000/svg">
<path d="M57 214.2C57 303.733 235.175 214.2 235.175 214.2C235.175 214.2 57 124.667 57 214.2Z" fill="#B5CFFD"/>
<path d="M413.35 214.2C413.35 303.733 235.175 214.2 235.175 214.2C235.175 214.2 413.35 124.667 413.35 214.2Z" fill="#B5CFFD"/>
<path d="M146.088 368.504C223.626 413.271 235.176 214.2 235.176 214.2C235.176 214.2 68.5505 323.738 146.088 368.504Z" fill="#B5CFFD"/>
<path d="M324.262 59.8963C401.8 104.663 235.175 214.2 235.175 214.2C235.175 214.2 246.724 15.1299 324.262 59.8963Z" fill="#B5CFFD"/>
<path d="M324.261 368.504C246.724 413.271 235.174 214.2 235.174 214.2C235.174 214.2 401.799 323.738 324.261 368.504Z" fill="#B5CFFD"/>
<path d="M146.088 59.8963C68.55 104.663 235.175 214.2 235.175 214.2C235.175 214.2 223.625 15.1299 146.088 59.8963Z" fill="#B5CFFD"/>
</svg>
